PathFileType	4	(X/Y/Z)	/Users/niels/Desktop/University/Third Semester/Perception and Action/Exam/Gymnastics Motion Tracking/Code for Gym Tracking/Analyzed Data/Webcam_Backflip/id18_1_trajectory_Sports2D/id18_1_trajectory_Sports2D_px_person00.trc
DataRate	CameraRate	NumFrames	NumMarkers	Units	OrigDataRate	OrigDataStartFrame	OrigNumFrames
29.872340425531917	29.872340425531917	12	22	m	29.872340425531917	146	235
Frame#	Time	Hip			RHip			RKnee			RAnkle			RBigToe			RSmallToe			RHeel			LHip			LKnee			LAnkle			LBigToe			LSmallToe			LHeel			Neck			Head			Nose			RShoulder			RElbow			RWrist			LShoulder			LElbow			LWrist		
		X1	Y1	Z1	X2	Y2	Z2	X3	Y3	Z3	X4	Y4	Z4	X5	Y5	Z5	X6	Y6	Z6	X7	Y7	Z7	X8	Y8	Z8	X9	Y9	Z9	X10	Y10	Z10	X11	Y11	Z11	X12	Y12	Z12	X13	Y13	Z13	X14	Y14	Z14	X15	Y15	Z15	X16	Y16	Z16	X17	Y17	Z17	X18	Y18	Z18	X19	Y19	Z19	X20	Y20	Z20	X21	Y21	Z21	X22	Y22	Z22
146	4.887464387464387	0.8164751256371462	-0.6780333509189169	0.0	0.7880801123477409	-0.6804798945255285	0.0	0.8026493890587898	-0.7967693211664924	0.0	0.8207975855883418	-0.8607195844409917	0.0	0.8303990467790853	-0.8902094586202796	0.0	0.821892443433012	-0.8887670763157988	0.0	0.8271560403727845	-0.8744814067276518	0.0	0.8460237374545971	-0.6736847505379907	0.0	0.8223789810009343	-0.7535571246687943	0.0	0.8009448435693416	-0.8772177162347294	0.0	0.7966578689164328	-0.9004133303452913	0.0	0.810001275280263	-0.9011576368886124	0.0	0.7967837070460994	-0.8956808184333208	0.0	0.803195895852384	-0.530673755356295	0.0	0.7957155707776905	-0.45795359133394276	0.0	0.7984012024360065	-0.5008089637333749	0.0	0.755292913044406	-0.5613479644619016	0.0	0.7398099014812353	-0.6328710929140335	0.0	0.7318034881043028	-0.7093939533152256	0.0	0.8602565918517898	-0.5511076564762029	0.0	0.8816961384936653	-0.624139795708079	0.0	0.8986861323853508	-0.7006164445847852	0.0
147	4.920940170940171	0.8142466760562479	-0.6684773651234085	0.0	0.7848885115197017	-0.6704038634256759	0.0	0.7969762418295091	-0.7930079067695219	0.0	0.8183526412650499	-0.8458879519581824	0.0	0.8307393083793942	-0.8840609633725657	0.0	0.8207040977209057	-0.8798190146428889	0.0	0.8229606081440782	-0.852717924722717	0.0	0.8438497799304069	-0.66468429153465	0.0	0.8207114387241371	-0.7539986775974705	0.0	0.8004712607934181	-0.8776219925256793	0.0	0.7978378582658832	-0.9006231171298017	0.0	0.811191806681289	-0.9007889652932085	0.0	0.7957591074258369	-0.8963437103937016	0.0	0.8022841616684804	-0.5174404202389271	0.0	0.7956995986810419	-0.4448941315400868	0.0	0.7984829012214373	-0.48749439965853414	0.0	0.7535838655309655	-0.5481180768707271	0.0	0.7392952576674199	-0.6199019183165718	0.0	0.7324665977979822	-0.6953267847988622	0.0	0.8598428208111925	-0.5387000679784302	0.0	0.8802898197919798	-0.6122156353351292	0.0	0.8953064936623123	-0.6884749668499327	0.0
148	4.954415954415954	0.811890163531206	-0.6593313110231818	0.0	0.7816238486755055	-0.6607437827907796	0.0	0.7906404057922193	-0.7890307672879394	0.0	0.8150711436638981	-0.8298973072898672	0.0	0.8284903231280984	-0.8775623791877468	0.0	0.8173508762343593	-0.8697349876857171	0.0	0.8184597565046108	-0.8285218540766666	0.0	0.841667059892845	-0.656169337612152	0.0	0.8190606821550184	-0.7546438667908312	0.0	0.7998806352158839	-0.878078172613172	0.0	0.7987293518440114	-0.9013175448252798	0.0	0.8123158621198686	-0.9007036807474964	0.0	0.7948583284414857	-0.8966080884255261	0.0	0.8013391915740947	-0.5039428088965504	0.0	0.7953357583326842	-0.43149289941132474	0.0	0.7984308811148116	-0.47394170975172034	0.0	0.7517873693101818	-0.5349222186367251	0.0	0.7385994434629192	-0.6068833485420405	0.0	0.7324218111475452	-0.6805253680451984	0.0	0.8595648842728817	-0.5263301749069168	0.0	0.8796718167773974	-0.6001276396113037	0.0	0.8924208021523549	-0.6756579684462201	0.0
149	4.987891737891738	0.8094164556584493	-0.6511702779260741	0.0	0.7783641253978083	-0.6519383398624615	0.0	0.7839398842829782	-0.7842148631996053	0.0	0.8107314729266579	-0.8156399080891266	0.0	0.8228188875896283	-0.8716145001161122	0.0	0.8111664397413868	-0.8601189840539543	0.0	0.813582279564309	-0.8072492924720122	0.0	0.8395161431172612	-0.6486146314643098	0.0	0.8175997654647472	-0.7555224617252018	0.0	0.7993069070694871	-0.8784355027640927	0.0	0.7993108311043179	-0.902474215646625	0.0	0.8132157968596895	-0.900929103909599	0.0	0.7942240415725426	-0.8963509607937289	0.0	0.8003278897318977	-0.4908463595375463	0.0	0.7945978338784964	-0.41825137996035766	0.0	0.7980905875040863	-0.46074168222964207	0.0	0.749849585411173	-0.5224232584515993	0.0	0.7375406382078736	-0.5947167188337782	0.0	0.7315605226013141	-0.6668628069696461	0.0	0.8594027265826663	-0.5146736668459512	0.0	0.8796799712136996	-0.5887978254525865	0.0	0.8901581776535262	-0.6635322830135579	0.0
150	5.021367521367521	0.8068176159442527	-0.6443334664953673	0.0	0.7751351253363892	-0.6442276377271166	0.0	0.7770919646820871	-0.7782325326532256	0.0	0.8051594136567392	-0.8064953012181387	0.0	0.8134720637117318	-0.8672782352855061	0.0	0.8018906502637304	-0.8529614030435966	0.0	0.808071564196343	-0.7947954686204385	0.0	0.8373754078205511	-0.6422744669698234	0.0	0.8163956378664334	-0.7566758313609843	0.0	0.7988660601824997	-0.8785923539903754	0.0	0.7995931050525585	-0.903869398467089	0.0	0.8137732566807263	-0.901372925924658	0.0	0.7939200102105541	-0.8955762213618875	0.0	0.799241075607933	-0.4786358708139364	0.0	0.7935400256565054	-0.40565254846049736	0.0	0.7974059155736032	-0.44832992701108637	0.0	0.7477775642681402	-0.5110579867599935	0.0	0.7360467842858601	-0.5840264377048245	0.0	0.7298975213173526	-0.6556667333664457	0.0	0.8592431338737831	-0.5041351341262954	0.0	0.8800396525582997	-0.5788396542800279	0.0	0.8884930274466528	-0.6531221610834531	0.0
151	5.054843304843305	0.804102575014736	-0.6388937988851711	0.0	0.7719487593366563	-0.6377157475011859	0.0	0.7702864580199092	-0.7712466877832573	0.0	0.7982611117991534	-0.8044413430375601	0.0	0.801141829418338	-0.8655131300093719	0.0	0.7899348922299041	-0.8498666573211933	0.0	0.8015869364202775	-0.7938383598400025	0.0	0.8351993336486608	-0.6372122395885078	0.0	0.8154017621705459	-0.7580533146321108	0.0	0.7986042544174536	-0.8785920870895755	0.0	0.799578778816233	-0.9052167374548054	0.0	0.814029438903765	-0.9019009468723453	0.0	0.7939908522878719	-0.8944790524835511	0.0	0.7980656532596961	-0.46769344971418525	0.0	0.7922192723653044	-0.394129306041294	0.0	0.7964368556711281	-0.4371154935075366	0.0	0.7456326742512466	-0.5011184102621293	0.0	0.7341109095347487	-0.5752057555587377	0.0	0.727468864555854	-0.6476261079555111	0.0	0.8589328099287734	-0.4949351594799046	0.0	0.880431245295199	-0.5706160341858545	0.0	0.887364219100339	-0.6449963433548777	0.0
152	5.088319088319088	0.8013468034753348	-0.6347894626302072	0.0	0.7688619399448734	-0.6324962190669525	0.0	0.7637634013283788	-0.7638835920653416	0.0	0.7900360838038146	-0.8092460710870223	0.0	0.787152936007761	-0.8669728514833996	0.0	0.776296521990455	-0.8515339219199396	0.0	0.7938615328655966	-0.8028359969894208	0.0	0.832953267618511	-0.6334240754907672	0.0	0.8145088000812356	-0.7595001638403549	0.0	0.7984778463091762	-0.8785770764802502	0.0	0.7992782018803649	-0.9062700639744036	0.0	0.8141691061806446	-0.9024143828282472	0.0	0.7944152317747423	-0.8934644353261301	0.0	0.7967830177403541	-0.45833526587537793	0.0	0.7906395371416862	-0.383951170660402	0.0	0.7952510738247343	-0.4275044145788678	0.0	0.7435013374132413	-0.4928249579386888	0.0	0.7317596525622856	-0.5684426813270906	0.0	0.7242840955856513	-0.6427991780171297	0.0	0.8583708237554732	-0.487208165846848	0.0	0.8805850825702065	-0.5642569572512184	0.0	0.8867530484084788	-0.6392814072402174	0.0
153	5.121794871794872	0.7986553856606177	-0.6319666105523853	0.0	0.7659421292791428	-0.6286847505257719	0.0	0.7577797246865039	-0.7570330590962477	0.0	0.780600269849302	-0.8194339144754458	0.0	0.7726952391720798	-0.8718897486874994	0.0	0.7620341891282245	-0.857775282206751	0.0	0.7848529545527112	-0.8184448839265378	0.0	0.8306254539074797	-0.6309254368624808	0.0	0.813618465337183	-0.7608731760952411	0.0	0.7983855445612161	-0.878718288492147	0.0	0.7987766535265208	-0.9068891718703677	0.0	0.8143828155241677	-0.9028711849813	0.0	0.7950039732958346	-0.8929621179924259	0.0	0.7953804401535925	-0.45080883831119156	0.0	0.7887795677088338	-0.3753064974680695	0.0	0.7938028309738748	-0.419799795873181	0.0	0.7414268614923208	-0.48633049501702585	0.0	0.729063906315311	-0.5637379753220588	0.0	0.7203479009789334	-0.6407528463916358	0.0	0.8575190529462149	-0.4810350104028708	0.0	0.8803447046889387	-0.5596801217084862	0.0	0.8866647151298204	-0.6357875097874124	0.0
154	5.155270655270655	0.7960616345472199	-0.6304484662833436	0.0	0.7631702552870341	-0.6264128676558507	0.0	0.7524887246282151	-0.7516082404119453	0.0	0.7701822281020565	-0.8333184504331718	0.0	0.7584848390064381	-0.8799349824698043	0.0	0.7478325877789971	-0.8677214546212154	0.0	0.7747548006345673	-0.8377174684576063	0.0	0.828213115188768	-0.6297766401852434	0.0	0.8126795476594709	-0.7621551587891856	0.0	0.7982466751445364	-0.8791627160578355	0.0	0.7982843669024082	-0.9071373201214489	0.0	0.8147747939912237	-0.9032866379110047	0.0	0.7954483372137983	-0.893174519517517	0.0	0.7938265056821799	-0.4452378953154349	0.0	0.7866332304356516	-0.3684110924660094	0.0	0.7919914328807532	-0.41411268646566507	0.0	0.7393497840084712	-0.4816976735723553	0.0	0.7261387668327008	-0.5609343892101485	0.0	0.7156965830099239	-0.6407666232862341	0.0	0.8563693226616091	-0.4764500008781958	0.0	0.8796596321341122	-0.5566832794137735	0.0	0.8870481827057253	-0.6341194706106783	0.0
155	5.188746438746439	0.7935033122382007	-0.630277145800531	0.0	0.7604610952845134	-0.6257882430857086	0.0	0.7478864634343177	-0.7483907541382128	0.0	0.7591465718364193	-0.8491936885234173	0.0	0.7450242120960763	-0.8901553865284022	0.0	0.7341432166870279	-0.8799765242100542	0.0	0.7639141633995039	-0.8583049341915895	0.0	0.8257126088599454	-0.6300152505356154	0.0	0.8116504324963033	-0.7634275923828387	0.0	0.7980333820105519	-0.8799470214912491	0.0	0.7980306268169695	-0.9072509431846845	0.0	0.815358772940424	-0.9037157824228381	0.0	0.795517609956412	-0.894011405339381	0.0	0.7920554324581773	-0.44155122537760805	0.0	0.7842063084437862	-0.3633767676019301	0.0	0.7897980884972544	-0.4103482090031966	0.0	0.7371288677748019	-0.47888772579823524	0.0	0.7230904679256536	-0.5597534576471496	0.0	0.7104175523899602	-0.641994021609109	0.0	0.8549273700808236	-0.47342617109914575	0.0	0.8785359851978807	-0.5550145974858515	0.0	0.8877498122199111	-0.6337413626531772	0.0
156	5.222222222222222	0.790891306898289	-0.6313366952543621	0.0	0.7577646979137959	-0.6267249566481519	0.0	0.7438801171519168	-0.7478799632576537	0.0	0.748086901699872	-0.8653248400100922	0.0	0.7328585334859458	-0.9011774521950946	0.0	0.7215044468453585	-0.8928608577757108	0.0	0.7528670952611632	-0.8780947839383747	0.0	0.8231300929410007	-0.63146298236824	0.0	0.8104744250367256	-0.7647791975332042	0.0	0.7977310752155115	-0.8809298186047014	0.0	0.7980609399887462	-0.9074475697298728	0.0	0.8160376845934231	-0.9042092896476073	0.0	0.795173932591648	-0.8951747327252073	0.0	0.7899875897242549	-0.439524966616587	0.0	0.7815202842456671	-0.36009519515982125	0.0	0.7872721053556209	-0.40825935310840367	0.0	0.7346159819735314	-0.47772071486383416	0.0	0.7199528404998776	-0.5598636015707763	0.0	0.7046398448171672	-0.6436381409011688	0.0	0.8531690089473913	-0.4718125259517557	0.0	0.877005880383005	-0.5543646976608224	0.0	0.8885409966980425	-0.634060828847713	0.0
157	5.255698005698006	0.7881725661815457	-0.6332743162548427	0.0	0.7550722976950971	-0.6288276200100379	0.0	0.7403784678590073	-0.7500678810420985	0.0	0.7378118460490553	-0.8802222425314089	0.0	0.7225355855515088	-0.9117343966029517	0.0	0.7105313122088385	-0.9049297011165551	0.0	0.7423954183335135	-0.8954656944105734	0.0	0.8204855355416779	-0.6336346392606796	0.0	0.8091384441789751	-0.7662617151223072	0.0	0.7973248945647669	-0.881834113309338	0.0	0.7982103970066001	-0.9078027883715596	0.0	0.8166219886492446	-0.904766435863554	0.0	0.7945130405700751	-0.8962801086835198	0.0	0.7875399847851539	-0.4388743212431844	0.0	0.7786031101203685	-0.3582805609446516	0.0	0.7844409954103448	-0.40750181559037096	0.0	0.7316998525577567	-0.47784266148227694	0.0	0.7166521620156542	-0.5609221745864201	0.0	0.6985065083884473	-0.6451581411099861	0.0	0.8510151516545753	-0.47129457772916694	0.0	0.8751191362370788	-0.554357861617923	0.0	0.889155231071085	-0.6345194710283619	0.0
